<?xml version="1.0" standalone="no"?>
<!DOCTYPE svg PUBLIC "-//W3C//DTD SVG 20010904//EN"
 "http://www.w3.org/TR/2001/REC-SVG-20010904/DTD/svg10.dtd">
<svg version="1.0" xmlns="http://www.w3.org/2000/svg"
 width="1544.000000pt" height="1544.000000pt" viewBox="0 0 1544.000000 1544.000000"
 preserveAspectRatio="xMidYMid meet">
<metadata>
Created by potrace 1.14, written by Peter Selinger 2001-2017
</metadata>
<g transform="translate(0.000000,1544.000000) scale(0.100000,-0.100000)"
fill="#000000" stroke="none">
<path d="M1684 15432 c-204 -27 -508 -144 -719 -276 -93 -58 -229 -165 -334
-262 -214 -198 -440 -548 -530 -819 -17 -50 -45 -160 -63 -245 l-33 -155 0
-5950 c0 -5661 1 -5954 18 -6042 60 -313 202 -622 421 -918 92 -125 285 -311
401 -387 285 -188 644 -325 925 -353 91 -9 11417 -13 11675 -4 175 6 230 11
330 34 295 67 645 236 879 426 113 91 206 192 330 358 237 317 359 597 433
992 17 89 18 407 21 5864 2 4317 0 5801 -8 5895 -32 341 -116 599 -288 885
-177 295 -438 547 -751 728 -161 93 -417 188 -593 221 -75 14 -678 16 -6089
13 -3303 -1 -6014 -3 -6025 -5z"/>
</g>
</svg>
